<svg xmlns="http://www.w3.org/2000/svg" viewBox="0 0 395.737 98.4058"><title>2Outline-DM-LogoAsset 1</title><g id="Layer_2" data-name="Layer 2"><g id="Layer_1-2" data-name="Layer 1"><g id="Layer_2-2" data-name="Layer 2"><g id="Layer_1-2-2" data-name="Layer 1-2"><path d="M143.1315,57.2224h13.9573V0H143.1315Zm33.09-54.709V54.71a31.3784,31.3784,0,0,0,0-52.1963ZM194.4027,0l28.95,57.2224,7.67-16.752L209.756,0Zm44.4245,0V57.2224h13.9569V0ZM194.4027,57.2224h13.9578V43.2651H194.4027Z" style="fill:#fff"/><path d="M11.3351,89.5815c0,2.7464-1.8743,4.3016-4.6986,4.3016h-1.92v-8.656h1.92c2.8243,0,4.6986,1.5815,4.6986,4.3045Zm4.8347-.0734V89.46c0-4.9118-3.5261-8.4109-9.6058-8.4109H0V98.0642H6.4693c6.1282,0,9.7-3.6458,9.7-8.5562m31.3664,1.8441H43.72L45.6377,86.52Zm2.599,6.7121h5.063L47.947,80.924H43.401l-7.2481,17.14h4.9662l1.2141-3.0368h6.563Zm38.547,0h4.1359V81.0487H88.15v8.9949l-7.001-8.9949H76.7448V98.0643h4.6678V88.7292Zm31.4666-8.5078V89.508a4.21,4.21,0,0,1,4.06-4.4982,4.5485,4.5485,0,0,1,3.7214,1.9967l3.5511-2.7507a8.3378,8.3378,0,0,0-7.2211-3.5475,8.7412,8.7412,0,0,0-8.9737,8.8481v.0484a8.64,8.64,0,0,0,8.4775,8.8q.1494.0027.2988,0a8.5829,8.5829,0,0,0,7.5373-3.84l-3.5451-2.5294a4.6651,4.6651,0,0,1-3.8461,2.0672c-2.38,0-4.06-1.9967-4.06-4.5466m33.3834,8.5078h13.8123V94.0533h-9.141V91.3522h8.1636V87.6361h-8.1636V85.0554h9.019V81.0487h-13.69Zm49.9422,0h4.6916V81.0487h-4.9778l-4.061,6.5874-4.0625-6.5874h-4.9837V98.0643H194.7V88.3387l4.3266,6.6152h.1l4.3471-6.6637Zm37.6287-6.7121h-3.8221l1.9234-4.8327Zm2.5982,6.7121h5.0572l-7.2476-17.14H236.97l-7.2475,17.14h4.9588l1.2177-3.0368h6.5669Zm42.9968,0-6.6651-9.7005,6.445-7.3152h-5.5869l-5.867,6.9042V81.0485h-4.7154V98.0642h4.7154v-4.4l1.73-1.9176,4.2841,6.3174Zm21.3979,0h13.8083V94.0533h-9.1416V91.3522H320.93V87.6361h-8.1674V85.0554h9.0256V81.0487H308.0959Zm46.9022-10.8653c0,1.2411-.9242,2.0172-2.525,2.0172h-3.1161V85.1317h3.0912c1.5756,0,2.55.6792,2.55,2.0173Zm5.3006,10.8653-4.06-5.933a5.3782,5.3782,0,0,0,3.5-5.2259V86.86a5.2758,5.2758,0,0,0-1.51-3.967c-1.1384-1.1665-2.94-1.8443-5.5442-1.8443H344.64V98.0641h4.7168V92.91h2.0686l3.4273,5.154ZM386.45,85.8108v-.0454c0-.6089.559-1.0959,1.7034-1.0959a8.5409,8.5409,0,0,1,4.7652,1.6769l2.3561-3.3319a10.7329,10.7329,0,0,0-7-2.2578c-4.083,0-6.59,2.2812-6.59,5.4429v.0514c0,3.5,2.7934,4.523,6.42,5.35,2.312.53,2.8666.9214,2.8666,1.6242v.0483c0,.7306-.6822,1.1693-1.941,1.1693a8.7633,8.7633,0,0,1-5.5208-2.0421l-2.6291,3.138a11.9018,11.9018,0,0,0,7.9782,2.8169c4.1328,0,6.8779-2.0627,6.8779-5.5413v-.0513c0-3.1822-2.428-4.4484-6.3424-5.3008-2.3606-.5324-2.9445-.8728-2.9445-1.6519" style="fill:#fff"/></g></g></g></g></svg>